[img]http://img171.imageshack.us/img171/5517/themuppets2011moviepost.jpg[/img]
[code]
The Muppets 2011 720p TS READNFO XviD-26K

Imdb: 
http://www.imdb.com/title/tt1204342/

Plot:
With the help of three fans, The Muppets must reunite to save their old theater from a greedy oil tycoon.

Sources:
SAINTNIK thnxs!

Notes:
First few mins are from the old cam :p rest is the new source very nice quality!
fixed the bad ar on source it looked a bit of to me :)
added few filters to the video and audio to make it sound and look nice enjoy guyz:P

Greetz:
Xtreme Encode|FYA|ILLUMANTI|CM8|RX|VISION|HDSCENE|NIGHTMAREZ|xTriLL|DTRG|CRYS|REMIXHD|BIDA
To all the people who have helped me :P you know who you are

Anything to offer email us @: 26k@hushmail.me

Video
ID                                       : 0
Format                                   : MPEG-4 Visual
Format profile                           : Advanced Simple@L5
Format settings, BVOP                    : 2
Format settings, QPel                    : No
Format settings, GMC                     : No warppoints
Format settings, Matrix                  : Default (H.263)
Codec ID                                 : XVID
Codec ID/Hint                            : XviD
Duration                                 : 1h 39mn
Bit rate                                 : 1 950 Kbps
Width                                    : 1 280 pixels
Height                                   : 646 pixels
Display aspect ratio                     : 1.981
Frame rate                               : 24.000 fps
Color space                              : YUV
Chroma subsampling                       : 4:2:0
Bit depth                                : 8 bits
Scan type                                : Progressive
Compression mode                         : Lossy
Bits/(Pixel*Frame)                       : 0.098
Stream size                              : 1.35 GiB (93%)
Writing library                          : XviD 63

Audio
ID                                       : 1
Format                                   : MPEG Audio
Format version                           : Version 1
Format profile                           : Layer 3
Mode                                     : Joint stereo
Mode extension                           : MS Stereo
Codec ID                                 : 55
Codec ID/Hint                            : MP3
Duration                                 : 1h 39mn
Bit rate mode                            : Constant
Bit rate                                 : 128 Kbps
Channel(s)                               : 2 channels
Sampling rate                            : 44.1 KHz
Compression mode                         : Lossy
Stream size                              : 90.7 MiB (6%)
Alignment                                : Aligned on interleaves
Interleave, duration                     : 42 ms (1.00 video frame)
Writing library                          : LAME3.98r
Encoding settings                        : -m j -V 4 -q 2 -lowpass 17 -b 128

[/code]
Screens:
[img]http://img849.imageshack.us/img849/5929/vlcsnap2011122612h47m19.png[/img]
[img]http://img4.imageshack.us/img4/9310/vlcsnap2011122612h47m26.png[/img]
[img]http://img72.imageshack.us/img72/74/vlcsnap2011122612h47m31.png[/img]
[img]http://img263.imageshack.us/img263/7973/vlcsnap2011122612h47m40.png[/img]
[img]http://img88.imageshack.us/img88/1484/vlcsnap2011122612h48m06.png[/img]
[img]http://img46.imageshack.us/img46/4324/vlcsnap2011122612h48m11.png[/img]
[img]http://img593.imageshack.us/img593/3850/vlcsnap2011122612h48m36.png[/img]


[img]http://img851.imageshack.us/img851/5503/26ks.jpg[/img]
Thank you smallz for banner!